PathFileType	4	(X/Y/Z)	C:\Users\Basilio\Documents\Thesis Gigler\squatting_fais\c3dfiles\075\SLS_front_pre2\markers_experimental.trc
DataRate	CameraRate	NumFrames	NumMarkers	Units	OrigDataRate	OrigDataStartFrame	OrigNumFrames
200.000000	200.000000	4	61	mm	200.000000	1288	1473
Frame#	Time	FHD			LBHD			C7			T10			CLAV			LSHO			LUUPA			LMUPA			LDUPA			LLEP			LMEP			LRAD			LUL			LRFIN			RSHO			RUPA1			RMUPA			RDUPA			RLEP			RMEP			RRAD			RUL			RUFIN			RASI			USACR			LSACR			RSACR			LTHI1			LTHI2			LTHI3			LTHI4			LLFC			LMFC			LTIB1			LTIB2			LTIB3			LTIB4			LLMAL			LMMAL			LHEE			LMT1			LMT2			LMT5			RTHI			RTHI2			RTHI3			RTHI4			RLFC			RMFC			RTIB1			RTIB2			RTIB3			RTIB4			RLMAL			RMMAL			RHEE			RMT1			RMT2			RMT5			RBHD			LASI			
		X1	Y1	Z1	X2	Y2	Z2	X3	Y3	Z3	X4	Y4	Z4	X5	Y5	Z5	X6	Y6	Z6	X7	Y7	Z7	X8	Y8	Z8	X9	Y9	Z9	X10	Y10	Z10	X11	Y11	Z11	X12	Y12	Z12	X13	Y13	Z13	X14	Y14	Z14	X15	Y15	Z15	X16	Y16	Z16	X17	Y17	Z17	X18	Y18	Z18	X19	Y19	Z19	X20	Y20	Z20	X21	Y21	Z21	X22	Y22	Z22	X23	Y23	Z23	X24	Y24	Z24	X25	Y25	Z25	X26	Y26	Z26	X27	Y27	Z27	X28	Y28	Z28	X29	Y29	Z29	X30	Y30	Z30	X31	Y31	Z31	X32	Y32	Z32	X33	Y33	Z33	X34	Y34	Z34	X35	Y35	Z35	X36	Y36	Z36	X37	Y37	Z37	X38	Y38	Z38	X39	Y39	Z39	X40	Y40	Z40	X41	Y41	Z41	X42	Y42	Z42	X43	Y43	Z43	X44	Y44	Z44	X45	Y45	Z45	X46	Y46	Z46	X47	Y47	Z47	X48	Y48	Z48	X49	Y49	Z49	X50	Y50	Z50	X51	Y51	Z51	X52	Y52	Z52	X53	Y53	Z53	X54	Y54	Z54	X55	Y55	Z55	X56	Y56	Z56	X57	Y57	Z57	X58	Y58	Z58	X59	Y59	Z59	X60	Y60	Z60	X61	Y61	Z61	

1289	6.44	-232.6482543945313	1722.384765625	-861.970397949219	-358.4422302246094	1603.27685546875	-958.457458496094	-400.7054748535157	1477.943481445313	-901.279968261719	-394.2792968750001	1154.146240234375	-899.9597167968752	-252.5955200195313	1427.827392578125	-889.634216308594	-279.6167297363282	1456.012084960938	-1054.018798828125	-285.4395141601563	1252.012573242188	-1170.228515625	-244.9092712402344	1232.014282226563	-1148.498779296875	-266.9854736328126	1185.640991210938	-1182.059448242188	-239.0517883300782	1104.428466796875	-1177.6962890625	-311.6233825683594	1090.318237304688	-1121.980346679688	-138.6556396484375	1020.762573242188	-959.0975341796877	-101.9611587524414	975.2437133789065	-1007.529113769531	-78.80213928222658	1006.600463867188	-904.768981933594	-303.2115783691407	1445.629028320313	-730.5877075195314	-316.3135681152344	1238.553466796875	-624.4127197265626	-275.9591979980469	1215.149047851563	-641.0971679687501	-304.8149719238282	1169.536743164063	-612.6431274414064	-282.6100463867188	1101.301147460938	-612.7621459960939	-340.5126953125001	1068.61474609375	-663.7794799804689	-124.7016220092774	1021.652221679688	-827.217956542969	-120.7548751831055	974.0927734375002	-766.7577514648439	-50.68469619750978	983.1450195312502	-857.2454833984377	-226.9838256835938	999.2847900390627	-768.2493896484377	-385.5350341796876	1056.637329101563	-900.6516723632815	-389.946258544922	1024.135864257813	-927.0791015625002	-389.7234497070314	1026.04345703125	-870.3230590820315	-285.9299316406251	747.3946533203126	-1098.013916015625	-259.6498413085938	666.8435668945314	-1100.919189453125	-212.1907958984376	669.6635742187501	-1085.22705078125	-288.7813415527344	615.3869628906251	-1090.720092773438	-304.7839965820313	505.5464782714845	-1085.247314453125	-257.7269592285157	483.7119140625001	-964.721862792969	-250.2861938476563	381.5544128417969	-1064.447998046875	-313.4312438964844	346.4522705078126	-1112.375244140625	-271.3141479492188	337.4536132812501	-1096.071044921875	-274.4593505859376	255.7499389648438	-1072.3037109375	-351.0298156738282	114.3997344970703	-1094.164916992188	-320.2860107421876	126.1019668579102	-1013.785705566406	-405.413787841797	81.89385223388673	-1053.202270507813	-199.7841796875001	53.61921691894533	-1019.668640136719	-194.360580444336	54.05053710937501	-1068.336669921875	-231.7747497558594	38.36406707763673	-1121.45751953125	-298.3965759277344	795.076354980469	-704.0644531250001	-262.7393188476563	740.4711303710939	-705.2631225585939	-231.2931213378907	745.2379150390626	-715.4547119140626	-294.3520507812501	660.6826171875001	-714.6065063476564	-318.4029541015626	507.7156066894532	-742.8137817382814	-271.9068603515626	495.1586914062501	-863.992614746094	-278.7288208007813	354.8699035644532	-801.2192993164065	-340.1446228027344	284.0683898925782	-745.6513061523439	-302.1562194824219	274.3775939941407	-774.4727172851565	-313.5754699707032	230.0763702392579	-810.2309570312502	-394.3150939941407	114.4606094360352	-776.5305175781252	-360.2496032714844	137.6240386962891	-855.8505859375002	-446.5418395996095	95.0028762817383	-836.7178955078127	-241.4001617431641	57.65763092041017	-824.198913574219	-247.7909851074219	55.21674728393556	-782.6419067382815	-289.8720703125001	34.97776031494141	-734.3785400390626	-350.1717529296876	1634.5048828125	-799.4592285156252	-229.3491210937501	990.2976684570315	-1026.71484375	
1290	6.445	-232.1948699951172	1722.341674804688	-862.755798339844	-358.1182250976563	1603.307495117188	-959.4849243164065	-400.6741638183595	1477.865966796875	-901.8897705078127	-394.0588378906251	1154.037353515625	-900.7202148437502	-253.0381011962891	1427.919921875	-890.8146972656252	-279.7880554199219	1455.853393554688	-1054.722900390625	-286.1006164550782	1251.993286132813	-1171.21533203125	-245.7219848632813	1231.923828125	-1149.962280273438	-267.1364746093751	1185.410522460938	-1182.93408203125	-239.0456695556641	1104.260131835938	-1178.44580078125	-311.5186157226563	1090.253051757813	-1122.829833984375	-138.828109741211	1020.397644042969	-960.3132324218752	-101.895980834961	974.927429199219	-1008.563293457031	-78.91056060791017	1006.155456542969	-905.838562011719	-302.9582214355469	1445.729125976563	-731.2683105468751	-315.8514099121094	1238.502075195313	-625.0257568359376	-275.5816650390626	1215.051391601563	-641.9564819335939	-304.3854064941407	1169.361083984375	-613.5735473632814	-282.3601989746094	1101.184448242188	-613.6102294921876	-340.2224731445313	1068.839477539063	-664.5040893554689	-124.9591064453125	1021.460144042969	-828.339294433594	-120.5974578857422	974.0626220703127	-767.6709594726564	-50.92465591430665	982.8552246093752	-858.3576660156252	-226.2717285156251	999.4324340820315	-769.2625732421877	-385.441131591797	1056.672729492188	-901.4880371093752	-389.5451660156251	1024.033813476563	-928.0180664062502	-389.2964782714845	1025.884887695313	-871.216979980469	-285.0870971679688	747.4447021484376	-1098.623657226563	-258.8525695800782	666.8029174804689	-1101.21875	-211.5720367431641	669.7256469726564	-1085.729614257813	-287.8960266113282	615.3672485351564	-1091.22705078125	-304.1552429199219	505.517303466797	-1085.701538085938	-257.0705261230469	483.7427062988282	-965.2302246093752	-249.6383819580079	381.4163513183594	-1064.587280273438	-312.9620971679688	346.6604003906251	-1112.66064453125	-270.7900695800782	337.4769897460938	-1096.267333984375	-273.5066833496094	255.601547241211	-1071.989379882813	-350.9340820312501	114.4381484985352	-1094.18115234375	-320.1859130859376	126.1891784667969	-1013.815734863281	-405.2646789550782	81.9419631958008	-1053.190673828125	-199.7185821533204	53.61167526245119	-1019.646179199219	-194.3259887695313	54.14043426513673	-1068.326782226563	-231.7326812744141	38.36763763427735	-1121.42724609375	-298.2258911132813	795.1705322265627	-704.7976684570314	-262.6223449707032	740.6039428710939	-705.7067871093751	-231.1068115234376	745.3313598632814	-715.9624023437501	-294.1797485351563	660.7788085937501	-715.1475219726564	-318.1780090332032	507.8296203613282	-743.2196655273439	-271.5007019042969	495.1068115234376	-864.3455200195315	-278.5137023925782	354.8445434570313	-801.4650878906252	-339.9890441894532	284.2519836425782	-745.8068237304689	-302.0934753417969	274.3268432617188	-774.7209472656252	-313.4848632812501	229.9795684814454	-810.3577880859377	-394.2640075683595	114.5606460571289	-776.6165161132815	-360.1998291015626	137.6428375244141	-855.9292602539065	-446.4981384277345	95.0060272216797	-836.801940917969	-241.4193420410157	57.64973831176759	-824.228454589844	-247.7936248779297	55.20090866088869	-782.6753540039065	-289.8509826660157	35.01458740234376	-734.4146118164064	-349.8595275878907	1634.596313476563	-800.4705200195315	-228.9194488525391	991.0967407226565	-1027.695434570313	
1291	6.45	-231.8627929687501	1722.126586914063	-863.5062255859377	-358.0653686523438	1603.435180664063	-960.1546020507815	-400.5949096679689	1477.795532226563	-902.4847412109377	-393.8849182128907	1153.998291015625	-901.4475708007815	-252.9933471679688	1427.932739257813	-891.5319824218752	-280.4734191894532	1455.803466796875	-1055.714233398438	-286.3067626953126	1251.896240234375	-1172.162475585938	-245.0558471679688	1231.817260742188	-1150.343139648438	-267.1802062988282	1185.317138671875	-1183.672241210938	-238.999984741211	1104.104248046875	-1179.26708984375	-311.4677734375001	1090.214965820313	-1123.640747070313	-138.8442077636719	1020.170593261719	-960.9919433593752	-102.0956115722657	974.7058715820315	-1009.582763671875	-79.10025787353517	1005.861267089844	-906.8554687500002	-302.7945251464844	1445.72216796875	-731.9447021484376	-315.4069824218751	1238.443969726563	-625.6502075195314	-275.2646484375001	1215.018798828125	-642.8370361328126	-304.0681457519532	1169.32177734375	-614.3685302734376	-282.1640930175782	1101.152099609375	-614.4669799804689	-340.0163269042969	1068.7958984375	-665.2589111328126	-125.0112609863282	1021.328308105469	-829.3421630859377	-120.5944366455078	974.0267333984377	-768.6394653320315	-51.06823348999025	982.6138916015627	-859.5252685546877	-225.9739837646485	999.5427856445315	-770.3731079101565	-384.8304443359376	1056.314208984375	-902.4456787109377	-389.1875915527345	1023.954772949219	-928.8482055664065	-388.9167785644532	1025.818969726563	-872.0367431640627	-283.7015991210938	747.2941284179689	-1099.058349609375	-257.9909362792969	666.7692260742189	-1101.484619140625	-210.6718444824219	669.7546386718751	-1086.273803710938	-286.9565124511719	615.2436523437501	-1091.68212890625	-303.4811706542969	505.5486755371095	-1086.22265625	-256.3760681152344	483.9107360839845	-965.5373535156252	-249.1698303222657	381.3549194335938	-1064.812744140625	-312.4554748535157	346.5731506347657	-1112.953125	-270.5711364746094	337.4626770019532	-1096.419311523438	-273.1135864257813	255.5660247802735	-1072.042724609375	-350.8227844238282	114.4906768798828	-1094.19482421875	-320.1860046386719	126.1710281372071	-1013.815185546875	-405.3200073242189	82.05044555664064	-1053.175170898438	-199.6754302978516	53.65150451660158	-1019.639892578125	-194.3444213867188	54.02811431884767	-1068.293212890625	-231.7405700683594	38.33017730712891	-1121.392944335938	-298.1165161132813	795.2689208984377	-705.4739990234376	-262.4479064941407	740.6685791015626	-706.4461669921876	-231.0001068115235	745.4209594726564	-716.4824218750001	-294.0494079589844	660.8691406250001	-715.7453002929689	-317.9917907714844	507.8981323242189	-743.6082763671876	-271.2904357910157	495.0036926269532	-864.790222167969	-278.3278503417969	354.8312988281251	-801.7429199218752	-339.9335632324219	284.2846069335938	-746.0614013671876	-302.1226196289063	274.4032287597657	-775.0206298828127	-313.2111511230469	230.0530242919922	-810.458435058594	-394.2664184570314	114.6353073120117	-776.7200317382815	-360.2318115234376	137.6139526367188	-856.1116943359377	-446.4785766601564	95.09352874755861	-836.8098754882815	-241.3856964111329	57.65827560424806	-824.269958496094	-247.7558593750001	55.22189712524415	-782.6813964843752	-289.8492126464844	35.05544662475587	-734.4326782226564	-349.6293640136719	1634.643432617188	-801.248718261719	-228.7196044921876	990.1443481445315	-1028.483520507813	
1292	6.455	-231.5306396484376	1722.006469726563	-864.2387695312502	-357.7107849121094	1603.287475585938	-960.758728027344	-400.5996398925782	1477.72607421875	-903.0839843750002	-393.7412719726564	1153.953857421875	-902.1192016601565	-252.9560089111329	1427.884521484375	-892.1370239257815	-279.9602050781251	1455.625244140625	-1056.151245117188	-286.4630737304688	1251.777221679688	-1172.836059570313	-245.3809204101563	1231.788696289063	-1151.4228515625	-267.2978210449219	1185.291137695313	-1184.655151367188	-238.8827819824219	1103.998168945313	-1180.203857421875	-311.6026000976563	1090.076293945313	-1124.566528320313	-138.7871856689453	1019.749938964844	-961.9407348632815	-102.0691299438477	974.3145141601565	-1010.341674804688	-79.20248413085939	1005.429321289063	-907.826599121094	-302.6837768554688	1445.715698242188	-732.4806518554689	-314.9434814453126	1238.486083984375	-626.1727294921876	-274.9235534667969	1214.932983398438	-643.5314331054689	-303.7741394042969	1169.316040039063	-615.0261230468751	-281.9179077148438	1101.040893554688	-615.3048095703126	-339.9731140136719	1068.6806640625	-666.2345581054689	-125.0519332885742	1021.132446289063	-830.2468261718752	-120.6037826538086	973.899353027344	-769.5862426757815	-51.17731094360353	982.4302368164065	-860.759216308594	-225.8954467773438	999.545837402344	-770.9824218750002	-384.435760498047	1056.111206054688	-903.2381591796877	-388.7041320800782	1023.874694824219	-929.741882324219	-388.7160644531251	1025.70458984375	-872.9197387695315	-282.8462829589844	747.1669311523439	-1099.541015625	-257.1222229003907	666.7515258789064	-1102.080444335938	-210.0112762451172	669.6231689453126	-1086.586669921875	-287.4594726562501	615.4642944335939	-1092.339477539063	-302.7578125000001	505.612762451172	-1086.68408203125	-255.7875671386719	483.9192810058595	-965.8927001953127	-248.5198669433594	381.2326049804688	-1064.91748046875	-311.8125000000001	346.1915283203126	-1113.174194335938	-269.7122192382813	337.4803771972657	-1096.670288085938	-272.8323059082032	255.4527130126954	-1072.1162109375	-350.6885681152344	114.4755859375	-1094.180541992188	-320.0839233398438	126.2012405395508	-1013.839599609375	-405.3341369628907	82.12335205078126	-1053.148315429688	-199.7415466308594	53.64105606079103	-1019.595581054688	-194.2998046875001	54.08460235595705	-1068.282348632813	-231.8438415527344	38.35561752319337	-1121.379638671875	-297.9552612304688	795.4612426757815	-706.1101074218751	-262.2824707031251	740.7979125976564	-707.0557861328126	-230.8423309326172	745.5052490234376	-717.0333251953126	-293.9164428710938	660.8807983398439	-716.2319946289064	-317.8294982910157	507.9233398437501	-744.0588378906251	-270.9936523437501	494.9544372558595	-865.0255126953127	-278.1150512695313	354.8111877441407	-801.9932250976565	-339.8031921386719	284.3900451660157	-746.2305297851564	-301.9827270507813	274.4123840332032	-775.2312622070315	-313.2281188964844	230.1897888183594	-810.737487792969	-394.2089233398439	114.7044906616211	-776.8245239257815	-360.1582641601563	137.6868438720703	-856.168395996094	-446.4266967773439	95.14310455322267	-836.8725585937502	-241.4009857177735	57.6765480041504	-824.303649902344	-247.7532806396485	55.22163391113283	-782.7221679687502	-289.8664855957032	35.08420944213868	-734.4776611328126	-349.2468566894532	1634.787719726563	-802.4356079101565	-228.0357971191407	990.163024902344	-1028.904907226563	
